<?xml version="1.0" encoding="UTF-8" standalone="no"?>
<svg xmlns="http://www.w3.org/2000/svg" class="card" face="1B" height="3.5in" preserveAspectRatio="none" viewBox="-120 -168 240 336" width="2.5in"><rect width="239" height="335" x="-119.5" y="-167.5" rx="12" ry="12" fill="white" stroke="black"></rect><rect width="216.095" height="313.967" x="-108.047" y="-156.983" fill="black"></rect><path d="M0,0v1h1v1h-1h-1v1h-1h-1v-1v-1v-1v-1v-1h-1v-1v-1h-1v1v1v1h1v1h-1v1v1v1h1v1v1h1h1v-1h1h1v1h1v1v1h-1h-1v1h-1h-1v1v1h-1h-1v-1v-1h1v1M-4,8v-1h-1h-1h-1v-1h1v-1h-1h-1v1v1v1h-1v1v1h-1v-1h-1h-1h-1v-1h1v-1h1v1h1v-1h1v-1v-1h-1h-1h-1h-1v1h-1v-1v-1h1v-1h-1h-1v1h-1v1h1v1h-1v1h-1v1v1h1h1v-1h-1M-15,8h1v-1h-1M-14,7h1M-14,8v1v1v1h-1v-1h-1h-1v1h1v1h1v1h-1v1h-1v-1v-1M-17,14v1h1v1v1h1h1v1v1h-1v1h-1v-1v-1h1M-16,18h-1v1v1v1h1h1v1h-1h-1v1v1v1h1v-1v-1h1v1h1h1v1h-1h-1M-13,25h1h1h1h1v-1v-1v-1h1v1h1h1v-1h1v-1v-1v-1v-1v-1h1h1v-1h-1h-1h-1h-1h-1v1v1h-1h-1h-1h-1v1h1h1h1h1v1h1v1v1M-7,21h1v-1v-1v-1h-1v-1h1M-7,18v1M-8,20v1h-1v-1h-1v1v1h-1v-1h-1h-1h-1v-1h1h1h1M-13,20v-1v-1v-1v-1h1v-1h-1v-1h-1h-1v1v1h1v-1M-14,14v-1v-1h1v1h1v-1h1v1v1h1v1h1v1h-1v1h-1v-1v-1M-11,17h-1M-10,17h1M-9,15v-1v-1h-1v-1h1h1v1h1v1v1h-1v-1M-7,15h1v-1v-1h1h1v1h1v1h-1h-1v-1M-3,15h1h1v1h1h1v-1h-1v-1v-1v-1h-1v-1h1h1v1h1h1h1v-1h1h1h1v-1h-1h-1h-1h-1h-1h-1v-1h-1v-1h1h1v-1h1h1v-1v-1h-1v1h-1v-1v-1h1v-1h-1v-1v-1v-1v-1h-1v1M2,-1v-1M2,3h-1v1M1,3h-1M4,5h1h1h1v-1h1v1v1h1v-1v-1v-1v-1h1v-1h1v-1h1h1v1h1v1v1h-1v-1h-1v-1M12,2v1v1h1v1h1v1h-1h-1h-1v-1h1M11,5v-1v-1h-1v1v1v1v1h-1v1h-1v-1h-1v-1h-1h-1v1h1v1h-1v1h1h1v-1M7,9h1v1h1v-1h1h1h1v-1h1h1v-1h1v1v1h1v1v1h-1v-1h-1v-1h-1v1v1h-1h-1v1h-1h-1v-1h-1v1v1v1h1h1v1h-1v1v1h1h1h1v-1v-1h1v1v1h1h1h1v-1h-1v-1v-1v-1h1v-1h-1h-1v1v1v1v1M14,14h-1h-1h-1v-1h-1h-1M11,13h1h1v-1h-1M11,14v1v1h-1M14,12v-1M16,12h1v-1v-1v-1v-1v-1h-1v-1v-1v-1h-1h-1M15,4v1v1M16,4h1v-1v-1v-1v-1v-1h-1v-1v-1h1v-1v-1v-1M17,-3v1M16,-2h-1v1v1v1v1v1h1v-1v-1v-1M15,0h-1v-1v-1h-1v1h-1h-1v-1v-1h1v1M12,-3v-1h-1h-1v1v1h-1v1h-1v1h1v1h-1h-1v-1h-1v1v1h1v1h1v-1M7,3h-1v1M6,0v-1v-1h1h1v-1h-1h-1v-1h-1v-1v-1h-1h-1h-1h-1v1M1,-6h-1M2,-6v-1h1M6,-4h1h1h1v1M7,-2v1M9,0h1v-1M17,4v1v1M16,7v1M17,12v1v1h-1v1h1v1v1v1v1v1v1h-1v1h1v1v1v1h-1v-1h-1h-1v-1h-1h-1h-1v-1h1v-1h1v-1v-1h1v-1h1h1v1h-1v1v1h-1v1h1v1h1M14,22h-1M14,21v-1M15,20h1M14,18h-1h-1v1h-1v-1h-1h-1v1h1v1v1v1v1v1h1h1v1h1h1h1M13,25v-1M12,25h-1h-1h-1h-1v-1h-1v-1h1v-1h1v-1h-1h-1v1h-1v-1v-1h1v-1v-1h-1v-1h-1v-1h1v-1h-1v-1h-1v-1h1v-1h1v1h1v1h-1M7,14v1v1h1v1v1v1v1h1M8,17h-1M8,16v-1M7,13v-1M4,13h-1h-1h-1v1h1v1v1h1v-1v-1M3,15h1v1v1h-1h-1h-1h-1v1v1h1h1h1h1v1h-1h-1v1h-1h-1v1v1h1v-1h1v1v1h-1h-1h-1h-1v1h1h1h1h1h1v-1v-1h1v-1h1v1h1v1h-1v1h-1v-1M5,25h1h1M5,22v-1h-1h-1v1M5,21v-1v-1v-1h-1h-1h-1h-1M5,19h1M-2,25h-1h-1v-1h-1h-1h-1h-1v1h1h1h1M-5,24v-1h1v-1h1v-1v-1v-1h-1v1v1M-4,19v-1h1h1h1v1v1h1h1M-1,20h-1v1h1v1h-1v1h1M-2,23h-1v1M-2,20v-1M-1,18v-1h-1v-1M9,22v1v1M10,21h1v-1h1M9,11h1v-1h1h1M14,7h-1h-1h-1v1h-1M5,9h-1h-1h-1M3,9v-1h1M11,3v-1M0,9h-1v1h1M-1,10h-1v-1M-2,10v1h-1v1h1v1h-1M-2,13h1v1h-1M-3,12h-1v-1h-1h-1v1h1M-6,12h-1v-1v-1h1v-1v-1h-1v1h-1v1v1h-1h-1h-1h-1h-1v-1h1h1M2,10v1h1M-11,14h-1M-14,21v1h1v1h-1M-13,23h1v1h1v-1h1v1M-12,23v-1M-17,18v-1v-1M-13,6h1h1h1M-2,4h-1M-4,3v-1v-1" transform="scale(6.117)" fill="none" stroke="white" stroke-width="0.674" stroke-linecap="square" stroke-linejoin="miter"></path><path d="M0,0v1h1v1h-1h-1v1h-1h-1v-1v-1v-1v-1v-1h-1v-1v-1h-1v1v1v1h1v1h-1v1v1v1h1v1v1h1h1v-1h1h1v1h1v1v1h-1h-1v1h-1h-1v1v1h-1h-1v-1v-1h1v1M-4,8v-1h-1h-1h-1v-1h1v-1h-1h-1v1v1v1h-1v1v1h-1v-1h-1h-1h-1v-1h1v-1h1v1h1v-1h1v-1v-1h-1h-1h-1h-1v1h-1v-1v-1h1v-1h-1h-1v1h-1v1h1v1h-1v1h-1v1v1h1h1v-1h-1M-15,8h1v-1h-1M-14,7h1M-14,8v1v1v1h-1v-1h-1h-1v1h1v1h1v1h-1v1h-1v-1v-1M-17,14v1h1v1v1h1h1v1v1h-1v1h-1v-1v-1h1M-16,18h-1v1v1v1h1h1v1h-1h-1v1v1v1h1v-1v-1h1v1h1h1v1h-1h-1M-13,25h1h1h1h1v-1v-1v-1h1v1h1h1v-1h1v-1v-1v-1v-1v-1h1h1v-1h-1h-1h-1h-1h-1v1v1h-1h-1h-1h-1v1h1h1h1h1v1h1v1v1M-7,21h1v-1v-1v-1h-1v-1h1M-7,18v1M-8,20v1h-1v-1h-1v1v1h-1v-1h-1h-1h-1v-1h1h1h1M-13,20v-1v-1v-1v-1h1v-1h-1v-1h-1h-1v1v1h1v-1M-14,14v-1v-1h1v1h1v-1h1v1v1h1v1h1v1h-1v1h-1v-1v-1M-11,17h-1M-10,17h1M-9,15v-1v-1h-1v-1h1h1v1h1v1v1h-1v-1M-7,15h1v-1v-1h1h1v1h1v1h-1h-1v-1M-3,15h1h1v1h1h1v-1h-1v-1v-1v-1h-1v-1h1h1v1h1h1h1v-1h1h1h1v-1h-1h-1h-1h-1h-1h-1v-1h-1v-1h1h1v-1h1h1v-1v-1h-1v1h-1v-1v-1h1v-1h-1v-1v-1v-1v-1h-1v1M2,-1v-1M2,3h-1v1M1,3h-1M4,5h1h1h1v-1h1v1v1h1v-1v-1v-1v-1h1v-1h1v-1h1h1v1h1v1v1h-1v-1h-1v-1M12,2v1v1h1v1h1v1h-1h-1h-1v-1h1M11,5v-1v-1h-1v1v1v1v1h-1v1h-1v-1h-1v-1h-1h-1v1h1v1h-1v1h1h1v-1M7,9h1v1h1v-1h1h1h1v-1h1h1v-1h1v1v1h1v1v1h-1v-1h-1v-1h-1v1v1h-1h-1v1h-1h-1v-1h-1v1v1v1h1h1v1h-1v1v1h1h1h1v-1v-1h1v1v1h1h1h1v-1h-1v-1v-1v-1h1v-1h-1h-1v1v1v1v1M14,14h-1h-1h-1v-1h-1h-1M11,13h1h1v-1h-1M11,14v1v1h-1M14,12v-1M16,12h1v-1v-1v-1v-1v-1h-1v-1v-1v-1h-1h-1M15,4v1v1M16,4h1v-1v-1v-1v-1v-1h-1v-1v-1h1v-1v-1v-1M17,-3v1M16,-2h-1v1v1v1v1v1h1v-1v-1v-1M15,0h-1v-1v-1h-1v1h-1h-1v-1v-1h1v1M12,-3v-1h-1h-1v1v1h-1v1h-1v1h1v1h-1h-1v-1h-1v1v1h1v1h1v-1M7,3h-1v1M6,0v-1v-1h1h1v-1h-1h-1v-1h-1v-1v-1h-1h-1h-1h-1v1M1,-6h-1M2,-6v-1h1M6,-4h1h1h1v1M7,-2v1M9,0h1v-1M17,4v1v1M16,7v1M17,12v1v1h-1v1h1v1v1v1v1v1v1h-1v1h1v1v1v1h-1v-1h-1h-1v-1h-1h-1h-1v-1h1v-1h1v-1v-1h1v-1h1h1v1h-1v1v1h-1v1h1v1h1M14,22h-1M14,21v-1M15,20h1M14,18h-1h-1v1h-1v-1h-1h-1v1h1v1v1v1v1v1h1h1v1h1h1h1M13,25v-1M12,25h-1h-1h-1h-1v-1h-1v-1h1v-1h1v-1h-1h-1v1h-1v-1v-1h1v-1v-1h-1v-1h-1v-1h1v-1h-1v-1h-1v-1h1v-1h1v1h1v1h-1M7,14v1v1h1v1v1v1v1h1M8,17h-1M8,16v-1M7,13v-1M4,13h-1h-1h-1v1h1v1v1h1v-1v-1M3,15h1v1v1h-1h-1h-1h-1v1v1h1h1h1h1v1h-1h-1v1h-1h-1v1v1h1v-1h1v1v1h-1h-1h-1h-1v1h1h1h1h1h1v-1v-1h1v-1h1v1h1v1h-1v1h-1v-1M5,25h1h1M5,22v-1h-1h-1v1M5,21v-1v-1v-1h-1h-1h-1h-1M5,19h1M-2,25h-1h-1v-1h-1h-1h-1h-1v1h1h1h1M-5,24v-1h1v-1h1v-1v-1v-1h-1v1v1M-4,19v-1h1h1h1v1v1h1h1M-1,20h-1v1h1v1h-1v1h1M-2,23h-1v1M-2,20v-1M-1,18v-1h-1v-1M9,22v1v1M10,21h1v-1h1M9,11h1v-1h1h1M14,7h-1h-1h-1v1h-1M5,9h-1h-1h-1M3,9v-1h1M11,3v-1M0,9h-1v1h1M-1,10h-1v-1M-2,10v1h-1v1h1v1h-1M-2,13h1v1h-1M-3,12h-1v-1h-1h-1v1h1M-6,12h-1v-1v-1h1v-1v-1h-1v1h-1v1v1h-1h-1h-1h-1h-1v-1h1h1M2,10v1h1M-11,14h-1M-14,21v1h1v1h-1M-13,23h1v1h1v-1h1v1M-12,23v-1M-17,18v-1v-1M-13,6h1h1h1M-2,4h-1M-4,3v-1v-1" transform="scale(6.117)rotate(180)" fill="none" stroke="white" stroke-width="0.674" stroke-linecap="square" stroke-linejoin="miter"></path></svg>
