<?xml version="1.0" encoding="UTF-8" standalone="no"?>
<svg xmlns="http://www.w3.org/2000/svg" class="card" face="1B" height="3.5in" preserveAspectRatio="none" viewBox="-120 -168 240 336" width="2.5in"><rect width="239" height="335" x="-119.5" y="-167.5" rx="12" ry="12" fill="white" stroke="black"></rect><rect width="216.095" height="313.967" x="-108.047" y="-156.983" fill="black"></rect><path d="M0,0h1v-1h-1h-1v-1h1v-1h-1v-1h-1h-1v-1h-1v-1v-1v-1h-1h-1v1v1h-1v-1h-1h-1v-1h1h1v-1h-1h-1v-1h-1h-1v1h-1v-1v-1v-1v-1v-1v-1v-1v-1h-1h-1v-1v-1h-1h-1v-1h1v-1h1v1h1v1h1v1h-1M-12,-18h1h1v1h1v1h-1v1h1h1v1h-1v1h1h1h1h1v-1v-1h1v1h1v1h-1v1h-1h-1v1h-1v1h1h1v1h-1M-5,-9h1v-1v-1h1v1h1v1h-1v1h1v1v1v1h1h1v1h1v-1h1v-1v-1v-1h-1v-1h-1h-1v1v1v1h1h1v-1h-1v-1M-1,-9v-1h1h1h1v-1h-1v-1h1v-1h-1h-1h-1v1h-1v-1v-1h1v-1v-1h-1v1h-1v-1h-1v-1h1v-1v-1h1v1v1h1h1v-1v-1v-1h-1v-1h-1h-1h-1v-1h1h1h1v-1h-1h-1v-1v-1h1h1v1h-1M-1,-24h1v-1h1h1v1v1h-1v-1M1,-23v1h-1v-1M0,-22v1h1h1v1h-1v1h1v1v1v1h-1v-1v-1M1,-16h-1v1h1h1v1h-1h-1M2,-14h1h1v-1v-1h-1v1M3,-16v-1h1v-1h-1v-1v-1v-1v-1h1h1v1h-1v1v1h1v1h1h1v-1h-1v-1h1h1v-1h-1h-1v-1v-1h1h1v-1h1v1h1v1v1v1h-1v1h-1v1v1h1v-1h1h1v-1h-1M11,-19v-1h1v1h1v-1h1v1v1v1v1v1h-1h-1v-1v-1h1v1M13,-17v-1h-1M12,-17h-1h-1v1h1v1h-1h-1h-1h-1h-1v-1h-1v1v1h1h1v1h1v1h-1v1v1h1h1v-1v-1h1v1h1h1h1v1h-1h-1h-1v1v1v1h-1v1h1v1v1h-1v-1h-1h-1v-1h1v-1v-1v-1h1v1M8,-9h-1v1v1h-1h-1v1v1v1h1v-1v-1M6,-4v1v1v1v1v1v1h1v-1h1v1v1h1h1v1v1h1v1v1h1h1v-1v-1h-1v-1h-1v-1h1v-1v-1v-1v-1v-1h1h1h1v-1h-1v-1h1h1h1v-1h-1h-1v-1h1v-1v-1h-1v-1h-1h-1v1v1h1v-1M14,-7v1h-1v1h-1h-1v1h1h1v1h-1h-1v1v1v1v1h-1v1h1M10,2h-1v-1v-1v-1h-1h-1v1h1M7,-1v-1v-1v-1h1v1h1v1h1v1v1M10,-2v-1M9,-2h-1M11,-5v-1h1v-1v-1v-1h-1v1v1M13,-5h1M14,-9v-1h1h1h1v1h-1M17,-9v1v1v1M17,-10v-1v-1v-1h-1h-1h-1v-1h1v-1h1v-1h-1v-1h1v-1h-1v-1h1h1v-1v-1h-1v1h-1v-1v-1v-1h-1v-1h-1v-1h-1v1h-1v-1h-1h-1h-1h-1v1h-1h-1v1h-1h-1v-1h1v-1h1h1M4,-25h-1M10,-25v1M11,-24v1h1h1v1h1v1h-1h-1v-1h-1v1M13,-25h1h1h1v1h1v-1M17,-24v1h-1v1h1M16,-24h-1M17,-19v1v1v1v1v1h-1M14,-14h-1h-1v1h-1v-1h-1h-1v1h1M9,-14h-1M11,-13v1h1h1h1h1h1v1h-1h-1M13,-12v-1M15,-8v1M17,-4v1v1h-1v1h1v1v1v1h-1h-1v1v1h-1v-1v-1h-1v1v1M13,2v-1h1h1v-1v-1h-1h-1v1h1M15,0h1v1M14,4v1h1h1v1v1h-1v-1h-1v1v1v1v1v1h-1v-1v-1v-1h-1h-1h-1v-1v-1h-1h-1v-1v-1h-1h-1v-1h1M6,3h-1h-1h-1v-1h1v-1v-1h-1h-1v1h1M2,1v1v1M2,0v-1v-1v-1h-1v1M2,-3h1v-1h-1M3,-4v-1v-1h1v-1v-1v-1v-1h1v-1h-1v-1v-1h1v1h1v1v1v1h-1v1h1M6,-12v-1M4,-13h-1v1v1v1v1h-1M3,-9v1v1M4,-6v1v1v1v1h-1v1h1h1v1v1v1M5,-1v-1v-1M4,3v1h1v1v1v1M5,5h1h1M8,4h1v1M10,8v1M13,11v1v1v1h1h1v1v1h-1h-1v-1h1M15,16h1h1v-1v-1v-1v-1v-1v-1h-1v-1h-1v-1h1h1v-1v-1v-1v-1h-1v-1h1M17,8v1M15,9v1v1v1h-1v1h1h1v1v1M16,13v-1v-1M17,16v1v1h-1h-1v-1h1M17,18v1v1v1v1h-1v1h1v1v1h-1v-1h-1v1h-1v-1v-1h-1h-1h-1h-1h-1v1v1h-1v-1h-1v-1h-1v1h-1v-1h-1v1v1h1h1h1M5,23v-1h1v-1h1v1h1v1M8,22h1v-1v-1v-1v-1h-1v-1v-1h-1h-1h-1v1h1v1v1h-1h-1v-1h1M4,19v1h-1h-1M4,20h1h1h1h1v1M8,20v-1h-1v-1v-1M5,20v1M6,16v-1v-1h1v1M9,19h1h1v1v1h1v1h-1h-1v-1v-1M12,22h1v-1M13,22h1h1v1M12,21v-1M9,25h1v-1h1h1v1h1v-1M12,25h-1M16,22v-1M16,-2v-1M12,5v1M9,-11h-1M5,-16v-1h1h1v1h1h1M9,-20v-1v-1h-1h-1M6,-20h-1M3,-22h-1M-1,-20v1v1M-2,-12h-1M-1,-12h1v1h-1h-1M-2,-6h-1v-1M-4,-11h-1M-7,-10h-1v-1h-1h-1h-1v-1v-1v-1h1v1v1h1h1h1M-11,-14v-1v-1v-1" transform="scale(6.117)" fill="none" stroke="white" stroke-width="0.674" stroke-linecap="square" stroke-linejoin="miter"></path><path d="M0,0h1v-1h-1h-1v-1h1v-1h-1v-1h-1h-1v-1h-1v-1v-1v-1h-1h-1v1v1h-1v-1h-1h-1v-1h1h1v-1h-1h-1v-1h-1h-1v1h-1v-1v-1v-1v-1v-1v-1v-1v-1h-1h-1v-1v-1h-1h-1v-1h1v-1h1v1h1v1h1v1h-1M-12,-18h1h1v1h1v1h-1v1h1h1v1h-1v1h1h1h1h1v-1v-1h1v1h1v1h-1v1h-1h-1v1h-1v1h1h1v1h-1M-5,-9h1v-1v-1h1v1h1v1h-1v1h1v1v1v1h1h1v1h1v-1h1v-1v-1v-1h-1v-1h-1h-1v1v1v1h1h1v-1h-1v-1M-1,-9v-1h1h1h1v-1h-1v-1h1v-1h-1h-1h-1v1h-1v-1v-1h1v-1v-1h-1v1h-1v-1h-1v-1h1v-1v-1h1v1v1h1h1v-1v-1v-1h-1v-1h-1h-1h-1v-1h1h1h1v-1h-1h-1v-1v-1h1h1v1h-1M-1,-24h1v-1h1h1v1v1h-1v-1M1,-23v1h-1v-1M0,-22v1h1h1v1h-1v1h1v1v1v1h-1v-1v-1M1,-16h-1v1h1h1v1h-1h-1M2,-14h1h1v-1v-1h-1v1M3,-16v-1h1v-1h-1v-1v-1v-1v-1h1h1v1h-1v1v1h1v1h1h1v-1h-1v-1h1h1v-1h-1h-1v-1v-1h1h1v-1h1v1h1v1v1v1h-1v1h-1v1v1h1v-1h1h1v-1h-1M11,-19v-1h1v1h1v-1h1v1v1v1v1v1h-1h-1v-1v-1h1v1M13,-17v-1h-1M12,-17h-1h-1v1h1v1h-1h-1h-1h-1h-1v-1h-1v1v1h1h1v1h1v1h-1v1v1h1h1v-1v-1h1v1h1h1h1v1h-1h-1h-1v1v1v1h-1v1h1v1v1h-1v-1h-1h-1v-1h1v-1v-1v-1h1v1M8,-9h-1v1v1h-1h-1v1v1v1h1v-1v-1M6,-4v1v1v1v1v1v1h1v-1h1v1v1h1h1v1v1h1v1v1h1h1v-1v-1h-1v-1h-1v-1h1v-1v-1v-1v-1v-1h1h1h1v-1h-1v-1h1h1h1v-1h-1h-1v-1h1v-1v-1h-1v-1h-1h-1v1v1h1v-1M14,-7v1h-1v1h-1h-1v1h1h1v1h-1h-1v1v1v1v1h-1v1h1M10,2h-1v-1v-1v-1h-1h-1v1h1M7,-1v-1v-1v-1h1v1h1v1h1v1v1M10,-2v-1M9,-2h-1M11,-5v-1h1v-1v-1v-1h-1v1v1M13,-5h1M14,-9v-1h1h1h1v1h-1M17,-9v1v1v1M17,-10v-1v-1v-1h-1h-1h-1v-1h1v-1h1v-1h-1v-1h1v-1h-1v-1h1h1v-1v-1h-1v1h-1v-1v-1v-1h-1v-1h-1v-1h-1v1h-1v-1h-1h-1h-1h-1v1h-1h-1v1h-1h-1v-1h1v-1h1h1M4,-25h-1M10,-25v1M11,-24v1h1h1v1h1v1h-1h-1v-1h-1v1M13,-25h1h1h1v1h1v-1M17,-24v1h-1v1h1M16,-24h-1M17,-19v1v1v1v1v1h-1M14,-14h-1h-1v1h-1v-1h-1h-1v1h1M9,-14h-1M11,-13v1h1h1h1h1h1v1h-1h-1M13,-12v-1M15,-8v1M17,-4v1v1h-1v1h1v1v1v1h-1h-1v1v1h-1v-1v-1h-1v1v1M13,2v-1h1h1v-1v-1h-1h-1v1h1M15,0h1v1M14,4v1h1h1v1v1h-1v-1h-1v1v1v1v1v1h-1v-1v-1v-1h-1h-1h-1v-1v-1h-1h-1v-1v-1h-1h-1v-1h1M6,3h-1h-1h-1v-1h1v-1v-1h-1h-1v1h1M2,1v1v1M2,0v-1v-1v-1h-1v1M2,-3h1v-1h-1M3,-4v-1v-1h1v-1v-1v-1v-1h1v-1h-1v-1v-1h1v1h1v1v1v1h-1v1h1M6,-12v-1M4,-13h-1v1v1v1v1h-1M3,-9v1v1M4,-6v1v1v1v1h-1v1h1h1v1v1v1M5,-1v-1v-1M4,3v1h1v1v1v1M5,5h1h1M8,4h1v1M10,8v1M13,11v1v1v1h1h1v1v1h-1h-1v-1h1M15,16h1h1v-1v-1v-1v-1v-1v-1h-1v-1h-1v-1h1h1v-1v-1v-1v-1h-1v-1h1M17,8v1M15,9v1v1v1h-1v1h1h1v1v1M16,13v-1v-1M17,16v1v1h-1h-1v-1h1M17,18v1v1v1v1h-1v1h1v1v1h-1v-1h-1v1h-1v-1v-1h-1h-1h-1h-1h-1v1v1h-1v-1h-1v-1h-1v1h-1v-1h-1v1v1h1h1h1M5,23v-1h1v-1h1v1h1v1M8,22h1v-1v-1v-1v-1h-1v-1v-1h-1h-1h-1v1h1v1v1h-1h-1v-1h1M4,19v1h-1h-1M4,20h1h1h1h1v1M8,20v-1h-1v-1v-1M5,20v1M6,16v-1v-1h1v1M9,19h1h1v1v1h1v1h-1h-1v-1v-1M12,22h1v-1M13,22h1h1v1M12,21v-1M9,25h1v-1h1h1v1h1v-1M12,25h-1M16,22v-1M16,-2v-1M12,5v1M9,-11h-1M5,-16v-1h1h1v1h1h1M9,-20v-1v-1h-1h-1M6,-20h-1M3,-22h-1M-1,-20v1v1M-2,-12h-1M-1,-12h1v1h-1h-1M-2,-6h-1v-1M-4,-11h-1M-7,-10h-1v-1h-1h-1h-1v-1v-1v-1h1v1v1h1h1h1M-11,-14v-1v-1v-1" transform="scale(6.117)rotate(180)" fill="none" stroke="white" stroke-width="0.674" stroke-linecap="square" stroke-linejoin="miter"></path></svg>
